<?xml version="1.0" encoding="UTF-8"?>
<svg xmlns="http://www.w3.org/2000/svg" xmlns:xlink="http://www.w3.org/1999/xlink" width="5px" height="10px" viewBox="0 0 5 10">
<path fillRule="evenodd" d="M 0.25 10C 0.19 10 0.12 9.97 0.07 9.92-0.02 9.82-0.02 9.65 0.07 9.55 0.07 9.55 4.38 5 4.38 5 4.38 5 0.07 0.45 0.07 0.45-0.02 0.35-0.02 0.18 0.07 0.08 0.17-0.03 0.33-0.03 0.43 0.08 0.43 0.08 4.91 4.81 4.91 4.81 5.01 4.92 5.01 5.08 4.91 5.19 4.91 5.19 0.43 9.92 0.43 9.92 0.38 9.97 0.31 10 0.25 10 0.25 10 0.25 10 0.25 10Z" fill="rgb(37,37,37)"/></svg>