<?xml version="1.0" encoding="UTF-8"?>
<svg xmlns="http://www.w3.org/2000/svg" xmlns:xlink="http://www.w3.org/1999/xlink" width="10px" height="10px" viewBox="0 0 10 10">
<path fillRule="evenodd" d="M 5.36 5C 5.36 5 9.91 0.45 9.91 0.45 10.01 0.35 10.01 0.18 9.91 0.08 9.8-0.03 9.64-0.03 9.53 0.08 9.53 0.08 4.99 4.63 4.99 4.63 4.99 4.63 0.45 0.08 0.45 0.08 0.35-0.03 0.18-0.03 0.08 0.08-0.03 0.18-0.03 0.35 0.08 0.45 0.08 0.45 4.62 5 4.62 5 4.62 5 0.08 9.55 0.08 9.55-0.03 9.65-0.03 9.82 0.08 9.92 0.13 9.97 0.2 10 0.26 10 0.33 10 0.4 9.97 0.45 9.92 0.45 9.92 4.99 5.37 4.99 5.37 4.99 5.37 9.53 9.92 9.53 9.92 9.59 9.97 9.65 10 9.72 10 9.79 10 9.86 9.97 9.91 9.92 10.01 9.82 10.01 9.65 9.91 9.55 9.91 9.55 5.36 5 5.36 5 5.36 5 5.36 5 5.36 5Z" fill="rgb(124,124,124)"/></svg>