<?xml version="1.0" encoding="UTF-8"?>
<!DOCTYPE svg PUBLIC "-//W3C//DTD SVG 1.1//EN" "http://www.w3.org/Graphics/SVG/1.1/DTD/svg11.dtd">
<!-- Creator: CorelDRAW X7 -->
<svg xmlns="http://www.w3.org/2000/svg" xml:space="preserve" width="15.522mm" height="15.5256mm" version="1.1" style="shape-rendering:geometricPrecision; text-rendering:geometricPrecision; image-rendering:optimizeQuality; fill-rule:evenodd; clip-rule:evenodd"
viewBox="0 0 328 328"
 xmlns:xlink="http://www.w3.org/1999/xlink">
 <defs>
  <style type="text/css">
   <![CDATA[
    .fil0 {fill:#3E7CBF;fill-rule:nonzero}
   ]]>
  </style>
 </defs>
 <g id="Warstwa_x0020_1">
  <metadata id="CorelCorpID_0Corel-Layer"/>
  <path class="fil0" d="M300 91l-17 18 -63 -64 17 -17c0,0 12,-13 32,-13 24,0 44,20 44,45 0,12 -5,23 -13,31zm-188 189l0 -56c0,-4 -3,-7 -8,-7l-55 0 160 -161 64 63 -161 161zm-15 10l-52 12 0 -18 -18 0 12 -53 58 0 0 59zm172 -290c-17,0 -32,7 -43,17l-201 202 -25 109 109 -25 202 -201c11,-11 17,-26 17,-42 0,-33 -26,-60 -59,-60z"/>
 </g>
</svg>
