<?xml version="1.0" encoding="UTF-8"?>
<!DOCTYPE svg PUBLIC "-//W3C//DTD SVG 1.1//EN" "http://www.w3.org/Graphics/SVG/1.1/DTD/svg11.dtd">
<!-- Creator: CorelDRAW X7 -->
<svg xmlns="http://www.w3.org/2000/svg" xml:space="preserve" width="15.522mm" height="11.2893mm" version="1.1" style="shape-rendering:geometricPrecision; text-rendering:geometricPrecision; image-rendering:optimizeQuality; fill-rule:evenodd; clip-rule:evenodd" viewBox="0 0 1707 1242" xmlns:xlink="http://www.w3.org/1999/xlink">
 <defs>
  <style type="text/css">
   <![CDATA[
    .fil0 {fill:#7d7d7d;fill-rule:nonzero}
   ]]>
  </style>
 </defs>
 <g id="Warstwa_x0020_1">
  <metadata id="CorelCorpID_0Corel-Layer"/>
  <path class="fil0" d="M1630 1086c0,5 -1,9 -2,14l-479 -479 479 -479c1,4 2,9 2,13l0 931zm-78 78l-1397 0c-9,0 -18,-2 -26,-4l484 -484 133 133c30,30 69,45 108,45 39,0 78,-15 107,-45l133 -133 484 484c-8,2 -17,4 -26,4zm-1474 -78l0 -931c0,-4 0,-9 1,-13l479 479 -479 479c-1,-5 -1,-9 -1,-14zm77 -1008l1397 0c9,0 18,2 26,4l-672 672c-14,14 -32,22 -52,22 -20,0 -39,-8 -53,-22l-672 -672c8,-2 17,-4 26,-4zm1397 -78l-1397 0c-85,0 -155,69 -155,155l0 931c0,86 70,156 155,156l1397 0c86,0 155,-70 155,-156l0 -931c0,-86 -69,-155 -155,-155z"/>
 </g>
</svg>