<?xml version="1.0" encoding="UTF-8"?>
<!DOCTYPE svg PUBLIC "-//W3C//DTD SVG 1.1//EN" "http://www.w3.org/Graphics/SVG/1.1/DTD/svg11.dtd">
<!-- Creator: CorelDRAW X7 -->
<svg xmlns="http://www.w3.org/2000/svg" xml:space="preserve" width="15.522mm" height="15.5134mm" version="1.1" style="shape-rendering:geometricPrecision; text-rendering:geometricPrecision; image-rendering:optimizeQuality; fill-rule:evenodd; clip-rule:evenodd" viewBox="0 0 126 125" xmlns:xlink="http://www.w3.org/1999/xlink">
 <defs>
  <style type="text/css">
   <![CDATA[
    .fil0 {fill:#567BBB;fill-rule:nonzero}
   ]]>
  </style>
 </defs>
 <g id="Warstwa_x0020_1">
  <metadata id="CorelCorpID_0Corel-Layer"/>
  <path class="fil0" d="M43 77l-12 0 0 11 12 0 0 -11zm0 20l-12 0 0 11 12 0 0 -11zm0 -40l-12 0 0 11 12 0 0 -11zm-17 40l-12 0 0 11 12 0 0 -11zm94 -57l-114 0 0 -17c0,-3 2,-6 5,-6l12 0 0 9c0,1 1,3 3,3 1,0 3,-2 3,-3l0 -9 68 0 0 9c0,1 1,3 3,3 1,0 3,-2 3,-3l0 -9 11 0c3,0 6,3 6,6l0 17zm0 74c0,3 -3,6 -6,6l-103 0c-3,0 -5,-3 -5,-6l0 -68 114 0 0 68zm-6 -103l-11 0 0 -8c0,-2 -2,-3 -3,-3 -2,0 -3,1 -3,3l0 8 -68 0 0 -8c0,-2 -2,-3 -3,-3 -2,0 -3,1 -3,3l0 8 -12 0c-6,0 -11,6 -11,12l0 91c0,6 5,11 11,11l103 0c6,0 12,-5 12,-11l0 -91c0,-6 -6,-12 -12,-12zm-88 46l-12 0 0 11 12 0 0 -11zm0 20l-12 0 0 11 12 0 0 -11zm34 20l-11 0 0 11 11 0 0 -11zm0 -40l-11 0 0 11 11 0 0 -11zm0 20l-11 0 0 11 11 0 0 -11zm51 0l-11 0 0 11 11 0 0 -11zm-17 0l-11 0 0 11 11 0 0 -11zm17 -20l-11 0 0 11 11 0 0 -11zm-17 0l-11 0 0 11 11 0 0 -11zm-17 40l-11 0 0 11 11 0 0 -11zm0 -40l-11 0 0 11 11 0 0 -11zm0 20l-11 0 0 11 11 0 0 -11z"/>
 </g>
</svg>