<?xml version="1.0" encoding="UTF-8"?>
<!DOCTYPE svg PUBLIC "-//W3C//DTD SVG 1.1//EN" "http://www.w3.org/Graphics/SVG/1.1/DTD/svg11.dtd">
<!-- Creator: CorelDRAW X7 -->
<svg xmlns="http://www.w3.org/2000/svg" xml:space="preserve" width="12.7003mm" height="15.5134mm" version="1.1" style="shape-rendering:geometricPrecision; text-rendering:geometricPrecision; image-rendering:optimizeQuality; fill-rule:evenodd; clip-rule:evenodd"
viewBox="0 0 73 90"
 xmlns:xlink="http://www.w3.org/1999/xlink">
 <defs>
  <style type="text/css">
   <![CDATA[
    .fil0 {fill:#b3006a;fill-rule:nonzero}
   ]]>
  </style>
 </defs>
 <g id="Warstwa_x0020_1">
  <metadata id="CorelCorpID_0Corel-Layer"/>
  <path class="fil0" d="M24 77c2,0 2,-1 2,-2l-3 -49c0,-1 -1,-2 -2,-2 -1,1 -2,1 -2,3l3 48c0,1 1,2 2,2zm35 4c0,3 -2,4 -4,4l-37 0c-2,0 -3,-1 -4,-4l-4 -65 53 0 -4 65zm-33 -77l21 0 0 8 -21 0 0 -8zm45 8l-20 0 0 -8c0,-2 -2,-4 -4,-4l-21 0c-2,0 -4,2 -4,4l0 8 -20 0c-1,0 -2,1 -2,2 0,1 1,2 2,2l4 0 4 65c1,5 4,9 8,9l37 0c4,0 7,-4 8,-9l4 -65 4 0c1,0 2,-1 2,-2 0,-1 -1,-2 -2,-2zm-22 65c1,0 2,-1 2,-2l3 -48c0,-2 -1,-2 -2,-3 -1,0 -2,1 -2,2l-3 49c0,1 1,2 2,2zm-12 0c1,0 2,-1 2,-2l0 -49c0,-1 -1,-2 -2,-2 -1,0 -2,1 -2,2l0 49c0,1 1,2 2,2z"/>
 </g>
</svg>
